<mxfile host="app.diagrams.net" modified="2023-05-17T13:36:54.717Z" agent="Mozilla/5.0 (Windows NT 10.0; Win64; x64) AppleWebKit/537.36 (KHTML, like Gecko) Chrome/113.0.0.0 Safari/537.36 Edg/113.0.1774.42" version="21.3.2" etag="ynTz7RvZGuURVDGrpJ3J" type="github">
  <diagram name="PÃ¡gina-1" id="6dwqRLOC56UMMFKvhTGy">
    <mxGraphModel>
      <root>
        <mxCell id="0" />
        <mxCell id="1" parent="0" />
      </root>
    </mxGraphModel>
  </diagram>
</mxfile>
